<svg version="1.1" xmlns="http://www.w3.org/2000/svg" viewBox="0 0 525.7142857142856 332.26984126984047" width="525.7142857142856" height="332.26984126984047">
  <!-- svg-source:excalidraw -->
  
  <defs>
    <style class="style-fonts">
      @font-face {
        font-family: "Virgil";
        src: url("https://excalidraw.com/Virgil.woff2");
      }
      @font-face {
        font-family: "Cascadia";
        src: url("https://excalidraw.com/Cascadia.woff2");
      }
      @font-face {
        font-family: "Assistant";
        src: url("https://excalidraw.com/Assistant-Regular.woff2");
      }
    </style>
    
  </defs>
  <g transform="translate(252.6031746031747 107.26984126984047) rotate(0 -96.5 106)" stroke="none"><path fill="#bd2538" d="M -0.32,3.10 Q -0.32,3.10 -5.78,2.46 -11.23,1.82 -19.24,1.24 -27.25,0.66 -35.49,0.40 -43.73,0.14 -60.07,5.14 -76.42,10.13 -92.93,16.55 -109.45,22.97 -123.65,29.14 -137.86,35.30 -154.42,44.76 -170.98,54.22 -182.72,64.99 -194.47,75.75 -200.77,85.55 -207.06,95.34 -208.51,112.61 -209.96,129.88 -207.22,145.44 -204.48,160.99 -198.49,172.66 -192.50,184.32 -165.94,192.22 -139.37,200.12 -115.26,200.17 -91.16,200.21 -80.24,199.97 -69.33,199.74 -45.26,190.24 -21.19,180.73 -8.20,171.37 4.78,162.00 9.53,154.85 14.29,147.69 15.26,143.45 16.24,139.21 9.46,132.81 2.68,126.42 -15.93,120.82 -34.54,115.21 -42.93,112.71 -51.32,110.21 -54.38,109.34 -57.43,108.46 -57.76,108.32 -58.10,108.17 -58.38,107.95 -58.67,107.73 -58.90,107.45 -59.13,107.16 -59.28,106.83 -59.44,106.50 -59.51,106.14 -59.58,105.79 -59.56,105.42 -59.54,105.06 -59.44,104.71 -59.33,104.36 -59.15,104.05 -58.96,103.74 -58.71,103.48 -58.46,103.22 -58.15,103.02 -57.84,102.83 -57.49,102.72 -57.15,102.61 -56.78,102.58 -56.42,102.55 -56.06,102.61 -55.70,102.68 -51.91,102.92 -48.11,103.16 -44.91,103.02 -41.70,102.89 -35.75,102.96 -29.81,103.04 -24.86,104.43 -19.92,105.82 -21.99,108.33 -24.06,110.84 -27.86,111.85 -31.67,112.86 -32.18,112.94 -32.70,113.02 -33.22,112.98 -33.73,112.93 -34.23,112.76 -34.72,112.60 -35.16,112.32 -35.60,112.03 -35.96,111.66 -36.31,111.28 -36.57,110.82 -36.83,110.37 -36.97,109.87 -37.11,109.37 -37.13,108.85 -37.15,108.33 -37.04,107.82 -36.93,107.31 -36.70,106.84 -36.48,106.37 -36.15,105.97 -35.81,105.57 -35.40,105.26 -34.98,104.95 -34.50,104.75 -34.02,104.54 -30.09,104.03 -26.16,103.51 -24.18,103.33 -22.19,103.16 -21.41,103.26 -20.64,103.35 -19.93,103.69 -19.22,104.03 -18.66,104.57 -18.10,105.12 -17.75,105.82 -17.39,106.51 -17.27,107.29 -17.16,108.06 -17.29,108.83 -17.43,109.60 -17.81,110.29 -18.18,110.98 -18.76,111.51 -19.34,112.04 -20.05,112.36 -20.77,112.67 -21.54,112.75 -22.32,112.82 -23.09,112.64 -23.85,112.46 -24.51,112.05 -25.18,111.64 -25.68,111.04 -26.18,110.43 -26.45,109.70 -26.73,108.97 -26.77,108.19 -26.80,107.41 -26.58,106.65 -26.36,105.90 -25.91,105.26 -25.46,104.62 -24.83,104.15 -24.20,103.69 -23.46,103.45 -22.71,103.21 -21.93,103.22 -21.15,103.23 -20.41,103.49 -19.67,103.75 -19.05,104.23 -18.44,104.72 -18.01,105.37 -17.58,106.02 -17.38,106.78 -17.18,107.54 -17.23,108.32 -17.28,109.10 -17.58,109.82 -17.88,110.55 -18.40,111.14 -18.91,111.73 -19.59,112.12 -20.27,112.51 -21.03,112.67 -21.80,112.83 -21.80,112.83 -21.80,112.83 -23.73,112.81 -25.65,112.80 -28.66,112.83 -31.67,112.86 -32.18,112.94 -32.70,113.02 -33.21,112.98 -33.73,112.93 -34.23,112.77 -34.72,112.60 -35.16,112.32 -35.60,112.03 -35.96,111.66 -36.31,111.28 -36.57,110.82 -36.83,110.37 -36.97,109.87 -37.11,109.37 -37.13,108.85 -37.15,108.33 -37.04,107.82 -36.93,107.31 -36.71,106.84 -36.48,106.37 -36.15,105.97 -35.81,105.57 -35.40,105.26 -34.98,104.95 -34.50,104.75 -34.02,104.55 -30.07,105.34 -26.12,106.14 -27.97,107.51 -29.83,108.88 -35.81,108.92 -41.80,108.95 -45.03,108.71 -48.27,108.47 -52.85,108.46 -57.43,108.46 -57.76,108.32 -58.09,108.17 -58.38,107.95 -58.67,107.73 -58.90,107.45 -59.13,107.16 -59.28,106.83 -59.44,106.50 -59.51,106.15 -59.58,105.79 -59.56,105.42 -59.54,105.06 -59.44,104.71 -59.33,104.36 -59.15,104.05 -58.96,103.74 -58.71,103.48 -58.46,103.22 -58.15,103.02 -57.84,102.83 -57.49,102.72 -57.15,102.61 -56.78,102.58 -56.42,102.55 -56.06,102.61 -55.70,102.68 -52.76,103.93 -49.82,105.18 -41.41,107.69 -32.99,110.19 -13.42,116.38 6.15,122.56 13.46,130.36 20.78,138.16 19.74,144.32 18.71,150.48 13.32,158.34 7.92,166.19 -5.65,175.90 -19.24,185.61 -44.17,195.29 -69.11,204.98 -80.14,205.23 -91.18,205.48 -116.01,205.32 -140.85,205.16 -168.55,196.35 -196.25,187.53 -202.96,174.75 -209.66,161.97 -212.45,145.71 -215.23,129.45 -213.42,111.09 -211.62,92.74 -204.86,82.30 -198.10,71.85 -185.88,60.72 -173.66,49.58 -156.84,39.97 -140.01,30.35 -125.72,24.12 -111.43,17.89 -94.73,11.36 -78.02,4.84 -60.84,-0.31 -43.67,-5.47 -35.27,-5.28 -26.87,-5.09 -18.74,-4.60 -10.61,-4.12 -5.14,-3.61 0.32,-3.10 0.69,-3.02 1.06,-2.93 1.39,-2.76 1.73,-2.59 2.01,-2.35 2.30,-2.10 2.52,-1.80 2.74,-1.49 2.88,-1.14 3.02,-0.79 3.07,-0.42 3.12,-0.04 3.08,0.32 3.04,0.69 2.91,1.05 2.78,1.40 2.58,1.72 2.37,2.03 2.09,2.28 1.81,2.54 1.48,2.72 1.15,2.90 0.78,2.99 0.42,3.09 0.04,3.10 -0.32,3.10 -0.32,3.10 L -0.32,3.10 Z"></path></g><g transform="translate(70.6031746031747 69.26984126984047) rotate(0 88 99)" stroke="none"><path fill="#bd2538" d="M 2.90,-1.32 Q 2.90,-1.32 4.42,1.80 5.94,4.93 7.37,8.99 8.81,13.06 10.27,18.93 11.74,24.81 13.74,32.10 15.75,39.39 18.04,48.29 20.32,57.18 22.71,65.52 25.09,73.86 27.54,82.90 29.99,91.94 32.46,100.95 34.93,109.96 37.69,118.93 40.45,127.89 43.33,135.98 46.21,144.07 48.86,150.64 51.51,157.21 53.78,162.59 56.06,167.98 57.87,171.97 59.69,175.95 61.21,178.71 62.74,181.47 63.83,183.53 64.93,185.58 66.20,187.29 67.47,189.00 68.78,191.41 70.09,193.82 71.24,195.87 72.38,197.93 73.50,199.92 74.61,201.92 75.73,204.30 76.85,206.68 78.11,209.32 79.37,211.95 80.53,214.21 81.70,216.46 83.42,219.43 85.14,222.39 86.50,224.43 87.86,226.48 89.78,229.57 91.70,232.67 93.44,235.45 95.17,238.22 96.26,240.44 97.36,242.65 97.59,242.94 97.81,243.23 97.92,243.97 98.02,244.71 97.95,245.45 97.88,246.19 97.63,246.89 97.38,247.60 96.97,248.22 96.56,248.84 96.01,249.35 95.46,249.85 94.81,250.22 94.16,250.58 93.44,250.77 92.72,250.96 91.97,250.98 91.23,251.00 90.50,250.83 89.77,250.67 89.10,250.34 88.43,250.01 87.87,249.52 87.30,249.04 86.86,248.44 86.42,247.83 86.14,247.14 85.86,246.45 85.78,244.15 85.70,241.85 85.94,238.47 86.18,235.09 86.58,229.89 86.98,224.69 87.58,218.92 88.18,213.14 89.13,207.99 90.08,202.83 91.07,198.85 92.07,194.86 92.98,191.62 93.90,188.39 94.87,186.10 95.84,183.82 99.53,182.25 103.21,180.67 107.37,184.52 111.53,188.37 113.79,192.01 116.05,195.65 118.32,199.54 120.60,203.42 122.91,207.07 125.22,210.71 128.11,214.51 131.01,218.31 133.63,220.96 136.26,223.61 138.13,225.22 140.01,226.83 141.25,222.14 142.48,217.44 143.95,209.74 145.42,202.04 147.56,190.65 149.70,179.26 152.08,165.25 154.47,151.24 156.66,137.25 158.86,123.26 160.38,107.91 161.90,92.55 162.85,75.70 163.80,58.85 164.51,43.62 165.21,28.40 166.39,14.97 167.56,1.53 168.65,-8.20 169.73,-17.94 170.19,-24.59 170.65,-31.25 171.14,-35.60 171.63,-39.95 171.90,-42.27 172.17,-44.59 172.37,-46.60 172.56,-48.60 172.75,-49.13 172.94,-49.66 173.28,-50.11 173.63,-50.55 174.10,-50.86 174.57,-51.18 175.11,-51.32 175.66,-51.46 176.22,-51.43 176.79,-51.39 177.31,-51.17 177.83,-50.96 178.25,-50.59 178.68,-50.22 178.96,-49.73 179.25,-49.25 179.36,-48.69 179.48,-48.14 179.41,-47.58 179.34,-47.02 179.10,-46.51 178.86,-46.00 178.46,-45.60 178.07,-45.20 177.57,-44.94 177.07,-44.68 176.51,-44.59 175.95,-44.51 175.40,-44.61 174.84,-44.71 174.35,-44.98 173.85,-45.25 173.47,-45.66 173.09,-46.07 172.86,-46.59 172.63,-47.10 172.57,-47.66 172.52,-48.23 172.65,-48.78 172.77,-49.32 173.07,-49.80 173.37,-50.28 173.80,-50.64 174.23,-51.00 174.76,-51.21 175.29,-51.41 175.85,-51.43 176.41,-51.45 176.96,-51.30 177.50,-51.14 177.96,-50.82 178.42,-50.50 178.76,-50.04 179.09,-49.59 179.27,-49.05 179.44,-48.52 179.43,-47.95 179.43,-47.39 179.43,-47.39 179.43,-47.39 178.18,-43.37 176.94,-39.35 176.47,-35.12 176.01,-30.89 175.56,-24.12 175.12,-17.35 174.07,-7.67 173.03,2.00 171.90,15.32 170.78,28.65 170.13,43.90 169.48,59.15 168.60,76.13 167.72,93.11 166.29,108.64 164.86,124.17 162.82,138.22 160.77,152.27 158.58,166.35 156.40,180.43 154.55,191.84 152.70,203.25 151.55,211.30 150.40,219.36 149.40,224.28 148.40,229.20 146.25,231.98 144.10,234.76 141.96,235.09 139.82,235.42 137.33,233.69 134.84,231.97 133.24,230.07 131.64,228.17 128.79,225.27 125.94,222.36 122.71,218.51 119.48,214.65 116.86,211.10 114.24,207.55 111.68,203.99 109.11,200.43 106.75,197.36 104.39,194.29 102.84,192.49 101.29,190.69 100.32,193.60 99.35,196.51 98.60,200.22 97.85,203.92 97.40,208.76 96.95,213.60 96.96,219.15 96.98,224.71 97.37,229.93 97.75,235.15 97.78,239.19 97.81,243.23 97.92,243.97 98.02,244.71 97.95,245.45 97.88,246.19 97.63,246.89 97.38,247.60 96.97,248.22 96.56,248.84 96.01,249.35 95.46,249.85 94.81,250.21 94.16,250.58 93.44,250.77 92.72,250.96 91.97,250.98 91.23,251.00 90.50,250.83 89.77,250.67 89.10,250.34 88.44,250.01 87.87,249.52 87.30,249.04 86.86,248.44 86.42,247.83 86.14,247.14 85.87,246.45 86.00,246.32 86.13,246.19 84.84,243.95 83.54,241.70 81.72,238.41 79.89,235.11 78.33,231.94 76.76,228.76 75.92,226.76 75.08,224.77 74.02,222.75 72.97,220.73 71.89,218.38 70.81,216.03 69.48,213.25 68.16,210.48 67.26,208.24 66.37,206.00 65.45,203.89 64.53,201.77 63.59,199.57 62.65,197.37 61.77,195.17 60.89,192.98 59.70,190.62 58.50,188.27 57.88,186.17 57.25,184.07 56.06,181.11 54.88,178.15 53.03,174.10 51.18,170.04 48.88,164.62 46.58,159.20 43.88,152.53 41.18,145.86 38.25,137.67 35.32,129.48 32.51,120.44 29.71,111.40 27.21,102.39 24.70,93.39 22.22,84.40 19.74,75.41 17.28,67.01 14.82,58.62 12.47,49.81 10.12,40.99 7.99,33.67 5.85,26.34 4.34,20.82 2.82,15.30 1.31,11.51 -0.19,7.71 -1.54,4.51 -2.90,1.32 -3.02,0.95 -3.13,0.58 -3.16,0.20 -3.18,-0.18 -3.11,-0.55 -3.04,-0.93 -2.89,-1.28 -2.73,-1.64 -2.50,-1.94 -2.26,-2.24 -1.96,-2.48 -1.66,-2.72 -1.31,-2.88 -0.96,-3.04 -0.58,-3.11 -0.20,-3.18 0.17,-3.16 0.56,-3.14 0.93,-3.02 1.29,-2.91 1.62,-2.71 1.95,-2.51 2.23,-2.24 2.50,-1.97 2.70,-1.64 2.90,-1.32 2.90,-1.32 L 2.90,-1.32 Z"></path></g><g transform="translate(207.6031746031747 215.26984126984047) rotate(0 31 -0.5)" stroke="none"><path fill="#bd2538" d="M 0,-4.13 Q 0,-4.13 4.31,-3.93 8.62,-3.73 12.75,-3.61 16.89,-3.49 21.52,-3.37 26.15,-3.26 30.99,-3.17 35.83,-3.08 39.80,-3.35 43.76,-3.61 46.97,-3.88 50.18,-4.16 52.71,-4.40 55.23,-4.64 58.59,-4.96 61.95,-5.28 62.64,-5.17 63.32,-5.06 63.94,-4.75 64.55,-4.43 65.03,-3.93 65.51,-3.43 65.81,-2.80 66.11,-2.18 66.19,-1.49 66.27,-0.80 66.13,-0.13 65.99,0.54 65.63,1.14 65.28,1.74 64.76,2.19 64.24,2.64 63.60,2.90 62.95,3.17 62.26,3.21 61.57,3.25 60.90,3.08 60.23,2.90 59.66,2.51 59.08,2.13 58.66,1.58 58.23,1.04 58.00,0.38 57.78,-0.26 57.77,-0.96 57.76,-1.65 57.98,-2.31 58.19,-2.96 58.61,-3.52 59.02,-4.07 59.59,-4.47 60.16,-4.86 60.83,-5.05 61.49,-5.25 62.18,-5.21 62.88,-5.18 63.52,-4.93 64.17,-4.68 64.70,-4.24 65.23,-3.80 65.59,-3.21 65.96,-2.62 66.11,-1.94 66.27,-1.27 66.20,-0.58 66.13,0.10 65.84,0.73 65.56,1.36 65.09,1.87 64.62,2.38 64.01,2.71 63.40,3.04 62.72,3.16 62.03,3.28 62.04,3.28 62.04,3.28 58.71,3.03 55.38,2.79 52.91,2.66 50.44,2.52 47.32,2.49 44.19,2.46 40.01,2.77 35.84,3.08 30.99,3.17 26.15,3.26 21.52,3.37 16.89,3.49 12.75,3.61 8.62,3.73 4.31,3.93 0,4.13 -0.49,4.07 -0.98,4.01 -1.45,3.83 -1.92,3.65 -2.33,3.37 -2.74,3.09 -3.07,2.72 -3.40,2.34 -3.63,1.90 -3.86,1.46 -3.98,0.98 -4.10,0.49 -4.10,-0.00 -4.10,-0.49 -3.98,-0.98 -3.86,-1.46 -3.63,-1.90 -3.40,-2.34 -3.07,-2.72 -2.74,-3.09 -2.33,-3.37 -1.92,-3.66 -1.45,-3.83 -0.98,-4.01 -0.49,-4.07 0.00,-4.13 0.00,-4.13 L 0,-4.13 Z"></path></g><g transform="translate(124.28571428571445 47.14285714285717) rotate(0 33.57142857142844 135.71428571428572)" stroke="none"><path fill="#bd2538" d="M 3.97,-0.44 Q 3.97,-0.44 4.33,3.25 4.69,6.96 5.34,9.56 6.00,12.16 6.72,14.93 7.44,17.70 8.14,21.00 8.84,24.30 9.56,27.28 10.29,30.26 11.31,33.42 12.33,36.57 13.47,40.51 14.61,44.45 15.55,48.30 16.49,52.15 17.64,55.66 18.78,59.17 19.80,62.41 20.82,65.65 21.74,68.17 22.66,70.68 23.82,73.21 24.98,75.73 26.30,78.46 27.62,81.18 29.00,84.51 30.37,87.85 31.46,91.02 32.54,94.20 33.44,97.20 34.35,100.20 35.12,103.60 35.89,107.01 36.92,110.30 37.94,113.58 39.09,117.57 40.23,121.55 41.46,125.74 42.69,129.93 43.62,134.77 44.56,139.61 45.32,144.10 46.08,148.59 46.78,152.96 47.49,157.34 48.57,161.54 49.64,165.74 50.53,170.12 51.41,174.50 52.18,178.83 52.96,183.15 53.70,187.89 54.43,192.62 55.15,197.08 55.86,201.54 56.57,205.90 57.28,210.26 58.38,214.46 59.48,218.66 60.13,222.27 60.78,225.88 61.49,229.34 62.19,232.81 62.85,236.78 63.50,240.75 64.64,243.82 65.78,246.90 66.45,250.20 67.11,253.50 67.85,255.85 68.59,258.20 69.00,261.17 69.42,264.13 70.54,267.31 71.66,270.49 71.70,271.24 71.73,271.99 71.52,272.70 71.31,273.42 70.88,274.03 70.45,274.65 69.85,275.09 69.25,275.54 68.53,275.77 67.82,275.99 67.07,275.98 66.33,275.97 65.62,275.73 64.92,275.48 64.33,275.02 63.74,274.56 63.33,273.93 62.92,273.31 62.73,272.58 62.54,271.86 62.59,271.11 62.64,270.37 62.92,269.68 63.21,268.99 63.70,268.42 64.20,267.86 64.84,267.48 65.49,267.11 66.22,266.96 66.95,266.81 67.69,266.90 68.44,266.99 69.11,267.31 69.78,267.63 70.32,268.16 70.86,268.68 71.20,269.34 71.54,270.01 71.65,270.75 71.76,271.49 71.63,272.22 71.50,272.96 71.14,273.62 70.78,274.27 70.23,274.78 69.68,275.28 68.99,275.59 68.31,275.89 67.57,275.96 66.82,276.03 66.10,275.86 65.37,275.69 64.73,275.30 64.10,274.90 63.62,274.33 63.14,273.75 62.88,273.05 62.61,272.35 62.61,272.35 62.61,272.35 61.92,268.66 61.23,264.96 61.13,262.49 61.03,260.02 60.54,257.30 60.06,254.59 59.78,251.78 59.51,248.97 58.43,245.38 57.36,241.80 56.67,237.84 55.98,233.89 55.46,230.29 54.93,226.69 54.63,223.34 54.32,220.00 53.16,215.56 52.01,211.13 51.28,206.77 50.55,202.41 49.80,197.94 49.06,193.48 48.30,188.81 47.55,184.15 46.74,179.90 45.93,175.64 45.01,171.43 44.10,167.21 42.88,162.79 41.67,158.37 40.84,154.05 40.02,149.73 39.11,145.35 38.20,140.97 37.14,136.55 36.08,132.12 34.56,128.04 33.03,123.95 31.56,120.07 30.08,116.19 28.82,112.57 27.55,108.95 26.79,105.76 26.03,102.57 25.27,99.71 24.50,96.85 23.59,93.98 22.68,91.11 21.29,87.96 19.90,84.80 18.59,81.90 17.28,79.01 16.11,76.05 14.95,73.09 14.25,70.44 13.56,67.78 12.71,64.65 11.86,61.52 10.54,57.78 9.23,54.03 8.24,50.47 7.26,46.91 5.80,43.08 4.34,39.25 3.12,35.73 1.90,32.21 1.22,29.13 0.54,26.06 -0.14,22.84 -0.82,19.63 -1.42,16.73 -2.01,13.83 -2.53,10.83 -3.04,7.82 -3.51,4.13 -3.97,0.44 -3.97,-0.04 -3.96,-0.52 -3.84,-0.98 -3.72,-1.45 -3.49,-1.88 -3.26,-2.30 -2.94,-2.66 -2.62,-3.02 -2.22,-3.29 -1.82,-3.56 -1.36,-3.72 -0.91,-3.89 -0.43,-3.94 0.04,-3.99 0.51,-3.93 0.99,-3.87 1.44,-3.69 1.89,-3.52 2.28,-3.24 2.68,-2.96 2.99,-2.60 3.31,-2.23 3.53,-1.80 3.75,-1.37 3.86,-0.91 3.97,-0.44 3.97,-0.44 L 3.97,-0.44 Z"></path></g><g transform="translate(10 89.99999999999994) rotate(0 252.85714285714278 -39.99999999999997)" stroke="none"><path fill="#bd2538" d="M -0.85,-3.00 Q -0.85,-3.00 7.78,-5.40 16.43,-7.80 31.33,-10.47 46.24,-13.15 68.95,-17.13 91.66,-21.12 121.47,-25.68 151.28,-30.24 190.23,-35.87 229.18,-41.49 264.64,-46.34 300.09,-51.19 334.04,-56.13 367.99,-61.06 395.14,-65.20 422.29,-69.35 442.86,-72.75 463.42,-76.15 475.47,-78.00 487.52,-79.86 496.41,-81.23 505.31,-82.61 505.73,-82.60 506.16,-82.60 506.56,-82.46 506.97,-82.32 507.31,-82.06 507.64,-81.79 507.88,-81.44 508.12,-81.08 508.23,-80.67 508.34,-80.26 508.31,-79.83 508.28,-79.40 508.12,-79.01 507.96,-78.61 507.68,-78.29 507.40,-77.97 507.03,-77.75 506.66,-77.53 506.25,-77.44 505.83,-77.36 505.40,-77.41 504.98,-77.46 504.59,-77.64 504.21,-77.82 503.90,-78.12 503.59,-78.42 503.40,-78.80 503.20,-79.18 503.13,-79.60 503.07,-80.02 503.14,-80.44 503.21,-80.86 503.42,-81.24 503.62,-81.61 503.93,-81.90 504.25,-82.19 504.64,-82.37 505.03,-82.55 505.45,-82.59 505.88,-82.63 506.29,-82.54 506.71,-82.44 507.07,-82.22 507.44,-81.99 507.71,-81.66 507.99,-81.34 508.14,-80.94 508.29,-80.54 508.31,-80.11 508.33,-79.68 508.21,-79.27 508.10,-78.86 507.85,-78.51 507.61,-78.16 507.27,-77.91 506.92,-77.65 506.52,-77.52 506.11,-77.38 506.11,-77.38 506.11,-77.38 497.22,-76.01 488.33,-74.63 476.31,-72.77 464.29,-70.91 443.70,-67.49 423.10,-64.08 395.93,-59.91 368.76,-55.75 334.79,-50.80 300.83,-45.85 265.40,-40.97 229.97,-36.10 191.04,-30.43 152.12,-24.77 122.38,-20.17 92.64,-15.57 69.96,-11.51 47.27,-7.46 32.67,-4.76 18.06,-2.05 9.46,0.47 0.85,3.00 0.48,3.06 0.11,3.12 -0.26,3.09 -0.63,3.05 -0.99,2.93 -1.34,2.81 -1.66,2.61 -1.98,2.41 -2.24,2.14 -2.50,1.86 -2.69,1.54 -2.87,1.21 -2.98,0.85 -3.08,0.48 -3.09,0.11 -3.11,-0.26 -3.03,-0.63 -2.95,-1.00 -2.79,-1.34 -2.63,-1.67 -2.39,-1.97 -2.15,-2.26 -1.85,-2.48 -1.55,-2.71 -1.20,-2.85 -0.85,-3.00 -0.85,-3.00 L -0.85,-3.00 Z"></path></g></svg>